<svg viewBox="0 0 500 500" xmlns="http://www.w3.org/2000/svg" xmlns:xlink="http://www.w3.org/1999/xlink" width="100%" id="blobSvg">
  <defs>
    <linearGradient id="gradient" x1="0%" y1="0%" x2="0%" y2="100%">
      <stop offset="0%" style="stop-color: rgb(238, 205, 163);"></stop>
      <stop offset="100%" style="stop-color: rgb(239, 98, 159);"></stop>
    </linearGradient>
  </defs>
  <path id="blob" d="M465.5,287Q478,324,450.5,349.5Q423,375,404.5,406.5Q386,438,349.5,440.5Q313,443,281.5,455.5Q250,468,216,463Q182,458,156,437Q130,416,105,395Q80,374,68,343.5Q56,313,52,281.5Q48,250,51.5,218.5Q55,187,65.5,155.5Q76,124,95,93.5Q114,63,146.5,47.5Q179,32,214.5,22Q250,12,282,32.5Q314,53,349.5,58.5Q385,64,406,93Q427,122,441,153Q455,184,454,217Q453,250,465.5,287Z" fill="url(#gradient)"></path>
</svg>